<svg xmlns="http://www.w3.org/2000/svg" version="1.1" xmlns:xlink="http://www.w3.org/1999/xlink" xmlns:svgjs="http://svgjs.dev/svgjs" width="1000" height="157" viewBox="0 0 1000 157"><g transform="matrix(1,0,0,1,-0.2716349440088379,-0.16970159151190956)"><svg viewBox="0 0 331 52" data-background-color="#0080ff" preserveAspectRatio="xMidYMid meet" height="157" width="1000" xmlns="http://www.w3.org/2000/svg" xmlns:xlink="http://www.w3.org/1999/xlink"><g id="tight-bounds" transform="matrix(1,0,0,1,0.08991119507962253,0.05620689655171418)"><svg viewBox="0 0 330.82017763845346 51.88758620689655" height="51.88758620689655" width="330.82017763845346"><g><svg viewBox="0 0 330.82017763845346 51.88758620689655" height="51.88758620689655" width="330.82017763845346"><g><svg viewBox="0 0 330.82017763845346 51.88758620689655" height="51.88758620689655" width="330.82017763845346"><g id="textblocktransform"><svg viewBox="0 0 330.82017763845346 51.88758620689655" height="51.88758620689655" width="330.82017763845346" id="textblock"><g><svg viewBox="0 0 330.82017763845346 51.88758620689655" height="51.88758620689655" width="330.82017763845346"><g><svg><g></g><g></g></svg></g><g><svg><g><svg></svg></g><g></g></svg></g><g id="text-0"><svg viewBox="0 0 330.82017763845346 51.88758620689655" height="51.88758620689655" width="330.82017763845346"><g transform="matrix(1,0,0,1,0,9.909310344827585)"><svg width="174.88505747126433" viewBox="3.9700000286102295 -31.610000610351562 174.8699951171875 32.06999969482422" height="32.06896551724138" data-palette-color="#0080FF"><path d="M3.97-1.72L3.97-28.79Q3.97-29.89 4.71-30.57L4.71-30.57Q5.4-31.26 6.21-31.38L6.21-31.38Q7.82-31.38 8.74-30.11L8.74-30.11 25.4-5 25.4-29.54Q25.4-30.46 25.75-30.8L25.75-30.8Q26.38-31.38 26.98-31.38 27.59-31.38 27.93-31.26 28.28-31.15 28.51-30.92L28.51-30.92Q29.14-30.46 29.08-29.54L29.08-29.54 29.08-2.59Q29.08-0.86 27.41-0.17L27.41-0.17Q27.01 0 26.38 0L26.38 0Q25 0 23.97-1.26L23.97-1.26 7.7-26.03 7.7-1.72Q7.7-0.92 7.24-0.57L7.24-0.57Q6.55 0 5.8 0 5.06 0 4.51-0.43 3.97-0.86 3.97-1.72L3.97-1.72ZM56.15 0L39.25 0Q38.56 0 38.1-0.46L38.1-0.46Q37.3-1.15 37.3-1.9L37.3-1.9 37.3-29.43Q37.3-30.52 38.45-31.15L38.45-31.15Q38.79-31.26 39.14-31.38L39.14-31.38 55.51-31.38Q56.38-31.38 56.78-30.86 57.18-30.34 57.18-29.74 57.18-29.14 56.72-28.62 56.26-28.1 55.51-28.1L55.51-28.1 41.09-28.1 41.09-17.7 54.83-17.7Q55.69-17.7 56.09-17.21 56.49-16.72 56.49-16.09L56.49-16.09Q56.49-15.52 56.03-15.06 55.57-14.6 54.83-14.6L54.83-14.6 41.09-14.6 41.09-3.22 56.15-3.22Q56.95-3.22 57.35-2.7 57.76-2.18 57.76-1.55 57.76-0.92 57.33-0.46 56.89 0 56.15 0L56.15 0ZM79.25-27.93L89.82-2.41Q89.88-2.07 89.88-1.72 89.88-1.38 89.71-1.03 89.54-0.69 89.25-0.52L89.25-0.52Q88.67 0 87.98 0L87.98 0Q86.6 0 86.14-1.21L86.14-1.21 83.33-8.16 67.81-8.16 65.05-1.21Q64.65 0 63.44 0 62.24 0 61.6-1.03L61.6-1.03Q61.43-1.38 61.43-1.67 61.43-1.95 61.6-2.41L61.6-2.41 72.01-27.93Q73.16-30.8 74.65-31.21L74.65-31.21Q75.05-31.26 75.68-31.38L75.68-31.38Q76.83-31.38 77.41-30.86L77.41-30.86Q78.33-30.17 79.25-27.93L79.25-27.93ZM75.57-28.1L68.9-11.21 82.29-11.21 75.57-28.1ZM101.72-28.1L93.15-28.1Q92.29-28.1 91.89-28.62 91.49-29.14 91.49-29.74 91.49-30.34 91.89-30.86 92.29-31.38 93.15-31.38L93.15-31.38 114.13-31.38Q114.94-31.38 115.34-30.86 115.74-30.34 115.74-29.74 115.74-29.14 115.31-28.62 114.88-28.1 114.13-28.1L114.13-28.1 105.62-28.1 105.62-1.9Q105.62-0.57 104.48-0.11L104.48-0.11Q104.13 0 103.56 0 102.98 0 102.35-0.46 101.72-0.92 101.72-1.9L101.72-1.9 101.72-28.1ZM118.84-15.52L118.84-15.52Q118.84-18.51 119.7-21.55 120.56-24.6 122.35-26.78L122.35-26.78Q126.14-31.61 133.15-31.61L133.15-31.61Q137.17-31.61 140.97-29.83L140.97-29.83Q141.94-29.43 141.94-28.51L141.94-28.51Q141.94-26.78 140.56-26.72L140.56-26.72Q140.28-26.72 140.05-26.78L140.05-26.78Q136.08-28.16 133.75-28.16 131.43-28.16 129.88-27.64 128.32-27.13 127.17-26.21 126.02-25.29 125.22-24.08 124.42-22.87 123.96-21.38L123.96-21.38Q122.98-18.62 122.98-15.52L122.98-15.52Q122.98-10.46 125.22-7.01L125.22-7.01Q127.86-2.93 133.38-2.93L133.38-2.93Q137.17-2.93 140.62-4.94L140.62-4.94Q141.08-5.06 141.51-5.06 141.94-5.06 142.32-4.66 142.69-4.25 142.69-3.62 142.69-2.99 142.23-2.44 141.77-1.9 141-1.47 140.22-1.03 139.27-0.69 138.32-0.34 137.29-0.11L137.29-0.11Q135.1 0.46 133.15 0.46L133.15 0.46Q126.08 0.46 122.35-4.31L122.35-4.31Q118.84-8.62 118.84-15.52ZM154.21-20.2Q153.67-17.82 153.67-15.55 153.67-13.28 154.21-10.86 154.76-8.45 156.08-6.64 157.4-4.83 159.36-3.74 161.31-2.64 164.13-2.64 166.94-2.64 168.95-3.74 170.96-4.83 172.23-6.64 173.49-8.45 174.1-10.86 174.7-13.28 174.7-15.55 174.7-17.82 174.1-20.2 173.49-22.59 172.23-24.4 170.96-26.21 168.95-27.3 166.94-28.39 164.13-28.39 161.31-28.39 159.36-27.3 157.4-26.21 156.08-24.4 154.76-22.59 154.21-20.2ZM149.36-15.63L149.36-15.63Q149.36-18.97 150.33-21.95 151.31-24.94 153.26-27.07L153.26-27.07Q157.17-31.55 164.07-31.61L164.07-31.61Q171.08-31.61 175.04-27.07L175.04-27.07Q176.94-24.94 177.89-21.95 178.84-18.97 178.84-15.63L178.84-15.63Q178.84-12.24 177.89-9.17 176.94-6.09 175.04-4.02L175.04-4.02Q171.08 0.46 164.07 0.46L164.07 0.46Q157.11 0.46 153.26-4.02L153.26-4.02Q151.31-6.21 150.33-9.22 149.36-12.24 149.36-15.63Z" opacity="1" transform="matrix(1,0,0,1,0,0)" fill="#0080FF" class="undefined-p-0"></path></svg></g><g><svg xmlns="http://www.w3.org/2000/svg" xmlns:xlink="http://www.w3.org/1999/xlink" version="1.1" x="187.13540229885055" y="0" viewBox="0 6 100 88" enable-background="new 0 0 100 100" xml:space="preserve" height="51.88758620689655" width="58.963166144200635" class="icon-s-0" data-fill-palette-color="accent" id="s-0"><g fill="#0080FF" data-fill-palette-color="accent"><path d="M41.751 59.098v6.119L20 55.789v-5.232l21.751-9.427v6.162l-15.156 5.839L41.751 59.098z" fill="#0080FF" data-fill-palette-color="accent"></path><path d="M55.2 41l-6.055 24.93c-0.201 0.821-0.377 1.471-0.529 1.946-0.151 0.476-0.382 0.849-0.691 1.112-0.31 0.268-0.761 0.4-1.352 0.4-1.47 0-2.206-0.636-2.206-1.902 0-0.332 0.145-1.16 0.433-2.486l6.033-24.93c0.317-1.326 0.619-2.234 0.907-2.724 0.289-0.49 0.851-0.735 1.688-0.735 0.721 0 1.271 0.173 1.653 0.519 0.382 0.346 0.573 0.822 0.573 1.427C55.654 39.004 55.502 39.818 55.2 41z" fill="#0080FF" data-fill-palette-color="accent"></path><path d="M80 55.789L58.249 65.26v-6.119l15.2-5.967-15.2-5.882v-6.076L80 50.6V55.789z" fill="#0080FF" data-fill-palette-color="accent"></path></g><path d="M94 6H6c-3.313 0-6 2.687-6 6v76c0 3.313 2.687 6 6 6h88c3.314 0 6-2.688 6-6V12C100 8.686 97.314 6 94 6zM79 10c2.205 0 4 1.794 4 4s-1.795 4-4 4-4-1.794-4-4S76.795 10 79 10zM68 10c2.205 0 4 1.794 4 4s-1.795 4-4 4-4-1.794-4-4S65.795 10 68 10zM94 88H6V22h88V88zM90 18c-2.205 0-4-1.794-4-4s1.795-4 4-4 4 1.794 4 4S92.205 18 90 18z" fill="#0080FF" data-fill-palette-color="accent"></path></svg></g><g transform="matrix(1,0,0,1,258.3489132706374,9.909310344827585)"><svg width="72.47126436781609" viewBox="4.309999942779541 -31.610000610351562 72.47000122070312 32.06999969482422" height="32.06896551724138" data-palette-color="#0080FF"><path d="M22.41 0L6.32 0Q5 0 4.48-1.15L4.48-1.15Q4.31-1.49 4.31-1.9L4.31-1.9 4.31-29.48Q4.31-30.8 5.52-31.21L5.52-31.21Q5.86-31.26 6.44-31.32 7.01-31.38 7.59-30.92 8.16-30.46 8.16-29.48L8.16-29.48 8.16-3.22 22.41-3.22Q23.28-3.22 23.65-2.73 24.02-2.24 24.02-1.64 24.02-1.03 23.62-0.52 23.22 0 22.41 0L22.41 0ZM47.58 0L31.49 0Q30.17 0 29.65-1.15L29.65-1.15Q29.48-1.49 29.48-1.9L29.48-1.9 29.48-29.48Q29.48-30.8 30.69-31.21L30.69-31.21Q31.03-31.26 31.61-31.32 32.18-31.38 32.76-30.92 33.33-30.46 33.33-29.48L33.33-29.48 33.33-3.22 47.58-3.22Q48.45-3.22 48.82-2.73 49.19-2.24 49.19-1.64 49.19-1.03 48.79-0.52 48.39 0 47.58 0L47.58 0ZM52.93-15.52L52.93-15.52Q52.93-18.51 53.79-21.55 54.65-24.6 56.43-26.78L56.43-26.78Q60.22-31.61 67.24-31.61L67.24-31.61Q71.26-31.61 75.05-29.83L75.05-29.83Q76.03-29.43 76.03-28.51L76.03-28.51Q76.03-26.78 74.65-26.72L74.65-26.72Q74.36-26.72 74.13-26.78L74.13-26.78Q70.17-28.16 67.84-28.16 65.51-28.16 63.96-27.64 62.41-27.13 61.26-26.21 60.11-25.29 59.31-24.08 58.5-22.87 58.04-21.38L58.04-21.38Q57.06-18.62 57.06-15.52L57.06-15.52Q57.06-10.46 59.31-7.01L59.31-7.01Q61.95-2.93 67.47-2.93L67.47-2.93Q71.26-2.93 74.71-4.94L74.71-4.94Q75.17-5.06 75.6-5.06 76.03-5.06 76.4-4.66 76.78-4.25 76.78-3.62 76.78-2.99 76.32-2.44 75.86-1.9 75.08-1.47 74.31-1.03 73.36-0.69 72.41-0.34 71.37-0.11L71.37-0.11Q69.19 0.46 67.24 0.46L67.24 0.46Q60.17 0.46 56.43-4.31L56.43-4.31Q52.93-8.62 52.93-15.52Z" opacity="1" transform="matrix(1,0,0,1,0,0)" fill="#0080FF" class="undefined-p-1"></path></svg></g></svg></g></svg></g></svg></g></svg></g></svg></g><defs></defs></svg><rect width="330.82017763845346" height="51.88758620689655" fill="none" stroke="none" visibility="hidden"></rect></g></svg></g></svg>